<?xml version="1.0" encoding="UTF-8"?>
<svg enable-background="new 0 0 321.183 685.93" viewBox="0 0 321.183 685.93" xmlns="http://www.w3.org/2000/svg">
<defs>
<i:pgf></i:pgf>
</defs>
<path d="m157.406,199.931c-4.896,5.148-11.844,10.836-21.132,17.604-9.324,6.804-23.292,14.868-34.416,22.392-11.304,7.272-23.04,13.752-32.436,21.384-9.504,7.596-17.352,17.028-23.4,24.12-5.976,6.912-9.9,10.872-12.312,17.856-2.484,7.056-3.096,16.488-2.52,24.12 .576,7.488 3.348,15.192 5.544,20.627 2.088,5.256 5.688,7.704 6.768,11.088 .9,3.349-.36,6.372-1.008,8.784-.72,2.269-1.728,3.996-3.024,5.04 7.236.181 13.176,1.729 18.36,4.5 5.148,2.7 9.504,5.796 12.096,12.061 2.484,6.191 3.636,16.849 2.484,25.164-1.26,8.353-3.96,18.288-10.044,24.119-6.228,5.652-15.048,8.748-26.892,9.576 4.32,2.088 7.128,4.464 8.28,7.271 1.224,2.664 1.728,4.896-1.26,9.324-3.24,4.428-12.348,10.584-17.604,17.101-5.292,6.3-10.116,12.636-14.076,21.096-4.14,8.496-8.928,17.748-10.044,29.412-1.26,11.592-1.836,27.071 3.276,39.492 5.292,12.275 15.12,24.84 27.396,33.947 12.132,9 27,15.084 44.748,20.053 17.748,4.859 37.62,8.604 60.588,9.287 22.824.685 52.236-1.151 75.458-5.508 23.219-4.572 47.229-13.141 62.604-21.385 15.156-8.352 20.375-16.451 28.008-27.899 7.523-11.592 13.177-24.769 17.101-40.5 1.225-6.769 1.69-14.508 1.008-23.508-.684-9.145-1.764-21.601-4.787-30.42-3.205-8.893-9.721-16.992-13.572-22.355-3.924-5.364-7.522-7.488-9.289-9.828-1.799-2.521-1.295-3.42-1.008-5.04 .324-1.836 1.441-3.636 2.773-5.256 1.26-1.656 2.627-3.168 4.535-4.536-5.111-.611-9.685-2.088-13.859-4.571-4.176-2.484-8.461-5.832-11.053-10.332-2.81-4.788-5.004-11.089-4.787-17.101 .18-5.977 1.908-13.248 6.299-18.072 4.357-4.787 10.801-8.315 19.621-10.584-2.557-2.951-3.603-5.363-3.529-7.523 .217-2.16 2.34-1.836 4.285-5.292 1.691-3.672 5.543-9.828 6.264-16.092 .685-6.48.252-13.645-2.268-21.636-2.701-8.064-6.48-16.236-13.572-25.884-7.164-9.648-12.348-17.748-29.16-31.68-17.209-14.184-55.188-40.392-72.145-52.236-16.852-11.809-26.141-17.82-28.299-18.18z" stroke="#000" stroke-miterlimit="10" stroke-width=".036"/>
<path d="m157.008,202.703c-3.816,4.68-10.008,10.296-18.972,16.848-9.144,6.588-23.22,14.976-34.452,22.392-11.304,7.2-23.04,13.716-32.436,21.348-9.54,7.596-17.28,16.992-23.364,24.156-5.976,6.912-9.9,10.872-12.312,17.856-2.592,7.056-3.204,16.992-2.52,24.12 .72,7.056 4.32,12.708 6.768,17.784 2.34,4.969 5.94,9 7.056,12.097 .9,2.952 0,4.032-.756,6.013-.72,1.907-1.944,3.888-3.528,5.796 9.252,1.477 16.236,3.996 21.384,7.561 5.112,3.491 7.2,7.451 9.036,13.823 1.692,6.372 2.664,16.057 1.26,24.191-1.548,8.173-4.392,18.433-10.044,24.12-5.868,5.473-13.644,8.173-24.156,8.496 4.212,2.34 6.732,4.933 7.56,7.775 .792,2.771.612,4.5-2.772,9.072-3.672,4.607-12.528,11.231-18.108,17.928-5.616,6.444-10.836,12.528-14.832,21.023-4.104,8.353-8.496,18-9.288,29.484-.936,11.447-1.512,26.712 4.248,38.987 5.796,12.24 17.856,24.912 30.204,33.695 12.204,8.496 25.704,13.213 42.984,17.604 17.28,4.283 37.548,7.812 59.832,8.208 22.176.252 49.934-1.837 72.434-6.265 22.5-4.607 46.149-12.744 61.092-20.376 14.652-7.668 20.627-15.229 26.531-25.021 5.76-9.9 8.567-20.988 8.278-33.696 .828-10.764.072-20.771-2.268-30.42-2.592-9.72-8.604-20.809-12.062-27.145-3.42-6.372-4.354-6.336-8.063-10.584-3.889-4.428-11.773-12.132-14.328-15.336-2.484-3.313-1.117-2.521-.756-3.996 .18-1.584.936-3.491 2.268-5.04 1.295-1.691 3.097-3.061 5.543-4.535-7.344,1.08-13.752-.756-19.367-5.652-5.651-5.04-11.95-15.695-14.327-23.615-2.521-7.921-1.439-16.74-.252-23.399 1.151-6.732 2.088-12.492 7.271-16.597 5.148-4.248 12.816-6.876 23.4-8.279-3.062-3.564-4.394-6.372-4.535-8.82-.037-2.34 2.088-2.735 4.031-5.508 1.801-3.023 4.896-7.236 6.805-11.952 1.871-4.788 4.211-8.712 4.248-16.092-.109-7.56-.756-18.792-5.004-28.152-4.394-9.468-4.969-13.896-20.881-27.72-16.127-13.968-57.132-42.66-74.412-54.828-17.277-12.131-26.529-17.781-28.438-17.349z" fill="#d18836" stroke="#000" stroke-miterlimit="10" stroke-width=".036"/>
<path d="m267.169,455.206c-4.248-.107-8.029-1.115-11.34-3.023s-6.049-4.428-8.785-8.531c-3.059-4.284-6.479-9.757-8.313-16.849-1.729-7.309-2.916-18.252-2.019-25.884 .793-7.668 4.176-14.725 6.805-19.368 2.484-4.645 4.466-6.443 8.279-8.315 3.744-2.053 8.533-3.133 14.365-3.528-1.836-3.061-2.629-5.651-2.521-7.775 0-2.231 1.656-3.168 3.025-5.292 1.332-2.231 3.42-3.384 5.004-7.775 1.477-4.429 4.393-9.792 4.031-18.612-.576-9.036-.072-23.004-6.803-34.704-6.806-11.808-20.664-24.12-33.66-34.992-13.285-11.016-31.285-21.312-44.281-29.916-12.924-8.604-23.688-15.336-32.688-20.88-5.076,2.808-11.448,6.732-19.656,12.06-8.28,5.328-18,12.24-29.16,19.62-11.34,7.236-27.72,16.164-37.476,23.868-9.756,7.596-15.66,15.768-20.628,21.888-5.148,6.048-6.984,8.28-9.54,14.328-2.556,5.904-5.976,13.968-5.796,21.132 .072,7.236 3.744,16.056 6.3,21.601 2.448,5.363 6.912,7.235 8.532,10.332 1.476,2.808 1.08,5.363.756,7.523-.396,2.195-1.224,4.176-2.772,5.796 6.696,1.584 12.132,3.637 16.596,6.3 4.392,2.484 7.344,4.284 9.828,9.288 2.484,5.112 4.536,13.141 4.788,20.88 .108,7.633-2.016,17.965-4.032,24.625-2.052,6.516-3.996,10.728-8.316,14.579-4.464,3.815-10.584,6.372-18.36,8.063 2.448,2.484 3.528,5.364 3.24,8.784-.36,3.349.18,4.933-5.04,11.557-5.436,6.552-20.196,18.359-26.64,27.647-6.3,9.216-9.432,16.739-11.34,27.433-2.088,10.584-5.616,23.508-1.008,35.712 4.5,12.061 16.668,26.928 28.188,36.432 11.484,9.36 22.752,14.832 40.464,19.872 17.784,5.005 41.94,9.647 65.124,10.044 23.112.181 50.544-3.42 72.144-8.027 21.42-4.571 41.293-9.792 55.584-19.116 14.113-9.468 23.473-24.516 28.656-36.972 4.932-12.601 4.033-24.983 1.764-37.691-2.303-12.816-9.971-29.124-15.084-38.231-5.256-9.108-11.879-11.881-15.588-16.093-3.672-4.248-5.904-6.372-6.299-9.288-.468-2.958.756-5.838 3.672-8.502z" fill="#6f3a2c"/>
<path d="m262.238,457.042c-2.16-.181-4.537-1.009-7.525-2.771-2.951-1.729-7.092-3.78-10.043-7.561-3.133-3.925-6.049-9.864-8.063-15.589-2.054-5.939-3.853-12.096-4.031-18.863-.217-6.84.432-14.147 2.771-21.097 2.375-6.983 6.443-16.235 11.088-20.124 4.535-3.888 9.504-4.896 15.589-3.023-1.298-2.304-1.802-4.428-1.513-6.516 .287-2.16 1.152-2.881 2.988-6.049 1.619-3.239 5.867-7.128 7.307-13.068 1.441-6.228 2.701-14.544 1.263-23.148-1.515-8.748-4.033-18.684-10.332-28.152-6.554-9.396-14.511-17.568-27.9-28.008-13.609-10.656-38.916-26.568-51.768-34.956-12.709-8.352-20.666-13.248-24.157-14.832-7.488,4.824-16.812,10.8-28.404,18.072-11.7,7.272-29.772,17.46-41.004,25.416-11.232,7.848-18.468,13.536-25.884,21.636-7.56,7.956-14.868,18.324-18.612,26.388-3.672,7.956-3.924,15.444-3.528,21.636 .252,6.12 3.204,10.908 5.544,15.336 2.376,4.428 6.912,6.768 8.316,11.052 1.296,4.177.9,8.819-.792,14.076 4.32.432 8.136,1.224 11.592,2.771 3.348,1.403 6.228,3.275 8.784,6.012 2.556,2.628 4.608,5.473 6.3,10.08 1.584,4.536 2.736,10.188 3.024,17.353 .072,7.128-.684,18.504-2.268,25.38-1.764,6.731-3.348,11.017-7.812,15.084-4.536,4.068-10.8,6.948-19.08,9.072 1.476,3.636 2.268,6.769 2.232,9.792-.036,2.844.252,4.141-2.484,7.775-2.988,3.636-8.892,8.208-14.364,13.859-5.544,5.651-13.464,12.061-18.072,19.908-4.5,7.739-7.38,17.783-9.072,26.389-1.944,8.495-3.78,15.804-2.016,24.407 1.728,8.604 5.868,17.855 12.564,26.389 6.624,8.424 14.76,16.775 27.18,23.508 12.528,6.66 30.564,12.168 47.016,15.84 16.236,3.564 32.22,5.328 50.04,5.292 17.783-.216 38.053-3.239 55.801-6.3 17.748-3.204 35.279-6.013 49.535-12.313 14.041-6.443 26.496-15.229 34.453-25.38 7.737-10.297 11.194-23.977 12.311-35.208 .938-11.16-2.229-21.456-5.76-31.429-3.527-10.225-9.756-20.987-15.084-28.691-5.4-7.668-14.437-12.204-17.101-17.063-2.738-4.894-2.414-9.07.971-12.382z" fill="#c37f33"/>
<path d="m292.441,443.83-11.089,6.517c-2.95,2.231-4.823,4.284-5.76,6.553-.899,2.124-2.34,2.556.252,6.552 2.558,3.996 10.008,11.269 14.58,17.101 4.428,5.651 8.279,10.62 11.558,16.849 3.096,6.155 5.649,12.491 7.271,19.836 1.547,7.199 2.123,16.164 2.269,23.399 .034,7.235-.505,13.645-1.765,19.62 3.168-6.624 5.256-13.032 6.805-19.62 1.439-6.552 1.979-11.521 1.765-19.62-.396-8.315-1.621-21.779-3.529-29.411-1.908-7.74-4.176-10.692-7.774-16.345-3.779-5.796-11.341-13.429-14.328-17.353-2.988-3.853-3.564-3.563-3.527-5.796-.113-2.341 1.077-5.15 3.272-8.282z" fill="#6f3a2c" stroke="#000" stroke-miterlimit="10" stroke-width=".036"/>
<path d="m277.392,375.142c-3.274-.18-6.657.324-10.295,1.513-3.672,1.08-8.496,2.231-11.557,5.256-3.203,2.771-5.867,6.553-7.307,12.313-1.404,5.868-1.873,16.057-1.263,22.393 .613,6.229 1.98,10.477 4.789,14.832 2.736,4.284 6.554,8.027 11.306,10.8 4.715,2.664 10.114,4.429 16.596,5.292l15.084-7.271c-4.932-.72-9.18-2.483-13.32-5.292-4.176-2.808-8.641-6.695-11.053-11.808-2.484-5.293-3.887-13.788-3.527-19.368 .217-5.544 1.691-9.504 5.543-13.824 3.89-4.392 9.648-8.46 17.568-12.348-4.175-.832-8.351-1.66-12.564-2.488z" fill="#6f3a2c" stroke="#000" stroke-miterlimit="10" stroke-width=".036"/>
<path d="m278.402,372.622c-2.412-1.871-3.744-3.672-4.285-5.544-.504-2.016-.215-3.348 1.26-5.796 1.404-2.447 5.004-5.328 7.057-8.783 1.908-3.492 3.421-6.049 4.535-11.701 1.011-5.832 1.836-16.236 1.515-22.608-.541-6.408-1.836-11.556-4.285-15.588 3.852,5.22 6.983,10.368 9.541,15.588 2.52,5.148 4.5,9.756 5.543,15.336 1.045,5.508 1.225,12.528.252,17.604-1.226,4.933-5.471,8.819-7.055,12.061-1.55,3.061-2.521,4.535-2.521,6.769-.035,2.159.504,4.392 2.016,6.552-4.503-1.298-9.037-2.594-13.573-3.89z" fill="#6f3a2c" stroke="#000" stroke-miterlimit="10" stroke-width=".036"/>
<path d="m202.982,413.41c-1.011.792-.9,6.912-.507,12.815 .435,5.94 1.226,15.912 2.773,22.141 1.404,5.977 2.807,10.584 5.76,13.824 2.879,3.096 10.871,5.437 11.34,4.788 .252-.793-7.198-1.765-9.575-9.324-2.412-7.704-3.203-28.8-4.752-36.216-1.801-7.488-4.031-8.82-5.039-8.028z" fill="#d18836"/>
<path d="m184.369,406.103c-1.043-.469-1.188,2.052-1.008,3.527 .106,1.332 1.008,3.96 2.016,4.536 .973.396 3.854-.108 3.781-1.513-.217-1.403-3.854-6.047-4.789-6.55z" fill="#d18836"/>
<path d="m228.361,456.646c-.791.504-1.729,4.5-1.008,6.552 .827,1.943 4.354,5.437 5.293,5.04 .61-.611-.324-6.084-1.011-8.063-.682-2.017-2.698-4.033-3.274-3.529z" fill="#d18836"/>
<path d="m191.173,407.866c2.412-.72 4.535-.504 6.517.504 1.873.899 3.6.612 5.041,5.544 1.401,4.896 1.618,16.271 3.274,24.12 1.404,7.956 2.303,17.028 6.012,22.645 3.779,5.437 11.951,8.567 16.597,9.54 4.537.756 9.037-2.412 10.584-4.5 1.369-2.195-.648-6.372-2.017-7.813-1.477-1.368-4.969-1.439-6.301-.504-1.402.899-1.727,3.672-1.512,5.544 .145,1.729 1.117,3.275 2.771,4.788-2.52.036-4.752-1.188-6.551-3.528-1.942-2.376-3.348-5.291-4.5-10.836-1.117-5.76-.899-16.164-2.268-22.859-1.584-6.769-3.386-12.563-6.806-16.849-3.6-4.393-9.358-7.199-13.823-8.567-4.607-1.368-10.729-.973-12.816.504-2.088,1.439-.539,6.265.756,8.063 1.26,1.656 5.328,2.557 6.806,2.269 1.297-.468 1.512-2.916 1.225-4.283-.362-1.442-1.26-2.558-2.989-3.782z" stroke="#000" stroke-miterlimit="10" stroke-width=".036"/>
<path d="m118.49,407.362c-.072.973-10.26,5.725-13.068,10.08-3.024,4.141-3.024,8.101-4.284,15.084-1.296,6.983-1.512,21.239-3.024,26.641-1.62,5.184-5.832,5.437-6.264,4.787-.576-.72 2.268-2.628 3.528-9.071 1.188-6.66 2.196-23.004 3.996-30.168 1.656-7.271 3.06-9.973 6.3-12.815 3.24-2.99 12.743-5.474 12.816-4.538z" fill="#d18836"/>
<path d="m125.042,407.362c-1.188.54-3.06,3.061-3.528,4.788-.54,1.548-.288,4.031.756,4.535 .972.324 4.212-.72 5.292-2.016 .972-1.368 1.08-4.32.756-5.544-.576-1.367-2.089-2.231-3.276-1.763z" fill="#d18836"/>
<path d="m83.786,458.158c.108-1.907-.36-1.548-1.26-1.26-.936.216-3.276,1.188-4.248,2.771-1.044,1.584-2.376,5.111-1.764,6.552 .54,1.439 3.708,2.952 5.04,1.765 1.114-1.476 2.05-7.992 2.232-9.828z" fill="#d18836"/>
<path d="m127.166,408.874c-2.448-.72-4.572-.504-6.516.505-1.98.899-3.708.611-5.04,5.544-1.476,4.896-1.728,16.271-3.276,24.12-1.62,7.955-2.34,17.027-6.048,22.645-3.888,5.436-12.06,8.567-16.596,9.539-4.608.757-9.144-2.411-10.548-4.5-1.44-2.195.576-6.371 2.016-7.812 1.368-1.368 4.896-1.44 6.3-.505 1.332.899 1.548,3.673 1.476,5.544-.18,1.765-1.188,3.204-2.736,4.752 2.52,0 4.644-1.115 6.516-3.491 1.8-2.376 3.312-5.292 4.536-10.836 1.008-5.761.792-16.164 2.268-22.859 1.548-6.769 3.204-12.564 6.768-16.849 3.456-4.393 9.324-7.2 13.86-8.567s10.62-.973 12.816.504c1.98,1.439.432,6.264-.756,8.063-1.368,1.655-5.436,2.557-6.804,2.269-1.368-.469-1.656-2.916-1.26-4.284 .288-1.442 1.296-2.558 3.024-3.782z" stroke="#000" stroke-miterlimit="10" stroke-width=".036"/>
<path d="m132.276,459.563c2.016-3.601 6.444-6.156 13.572-7.813 7.056-1.729 21.023-2.412 28.835-2.196 7.634.181 15.806,1.368 17.316,3.563 1.475,2.124-1.297,5.076-8.316,9-17.135-.827-34.269-1.691-51.407-2.554z" fill="#6f3a2c"/>
<path d="m183.685,460.75c-3.778-1.368-10.438-.864-19.008-1.009-8.712-.288-25.2-.899-32.256-.18-7.02.684-10.656,2.987-9.648,4.428 1.008,1.368 4.86,3.168 15.588,3.889 10.692.611 40.5,1.115 48.206,0 7.378-1.224.862-5.868-2.882-7.128z" stroke="#000" stroke-miterlimit="10" stroke-width=".036"/>
<path d="m180.085,461.182c-3.348-.972-9.217-.756-16.777-.756-7.667-.216-22.247-.721-28.475-.145-6.264.54-9.432,2.196-8.532,3.313 .9,1.008 4.248,2.448 13.788,2.952 9.504.396 35.676.899 42.551,0 6.59-1.008.649-4.284-2.555-5.364z" fill="#404040" stroke="#000" stroke-miterlimit="10" stroke-width=".036"/>
<path d="m188.257,357.466c2.232,1.836 8.496,1.008 10.043-4.429 1.404-5.615.541-9.899-1.188-28.26-1.799-18.468-5.832-64.224-9.181-81.468-3.6-17.316-9.469-26.064-11.194-21.384-1.621,4.788.504,32.652 1.512,49.572 .9,16.884 3.096,38.988 4.248,50.904 .971,11.664 1.439,13.248 2.375,19.188 .936,5.905 1.045,13.789 3.385,15.877z" fill="#6f3a2c"/>
<path d="m191.173,366.898c-1.117,1.079-4.932,1.871-11.592,2.521-6.805.647-19.477,1.403-28.152,1.008-8.712-.54-16.308-2.017-23.364-4.284l16.164-268.523h30.563c5.438,89.747 10.909,179.495 16.381,269.278z" stroke="#000" stroke-miterlimit="10" stroke-width=".036"/>
<path d="m189.048,364.45c-1.223,1.62-4.715,2.628-10.619,3.42-6.012.612-16.632,1.332-24.66.792-8.1-.575-15.768-2.052-23.4-4.283l15.588-265.068 26.675-.108c5.473,88.416 10.946,176.832 16.416,265.247z" fill="#404040" stroke="#000" stroke-miterlimit="10" stroke-width=".036"/>
<path d="m175.548,51.357 14.58.18c.576-2.268 1.656-4.032 3.24-5.436 1.584-1.476 3.672-2.916 6.121-3.06 2.375-.216 5.723.36 7.955,2.016 2.088,1.62 3.996,4.32 4.752,7.668 .721,3.168 1.045,9.144-.828,11.7-2.088,2.52-7.92,4.356-11.375,3.564-3.529-.972-6.697-3.78-9.504-8.82h-13.428c-.505-2.59-1.009-5.184-1.513-7.812z" stroke="#000" stroke-miterlimit="10" stroke-width=".036"/>
<path d="m176.556,52.727 14.113.144c.107-2.7 1.008-4.68 2.699-6.084 1.584-1.476 4.932-2.592 7.129-2.232 2.051.324 4.428,1.728 5.615,4.068 1.225,2.34 2.053,6.948 1.512,9.54-.756,2.376-3.455,4.536-5.615,5.076-2.305.36-5.58-.972-7.453-2.052-1.871-1.116-3.059-2.484-3.563-4.248h-13.428c-.323-1.404-.648-2.81-1.009-4.212z" fill="#404040" stroke="#000" stroke-miterlimit="10" stroke-width=".036"/>
<path d="m175.73,79.871 14.577.18c.576-2.268 1.656-4.032 3.24-5.437 1.621-1.476 3.603-2.916 6.084-3.06 2.306-.216 5.797.36 7.992,2.016 2.088,1.62 3.996,4.32 4.752,7.668 .648,3.168 1.008,9.145-.863,11.7-2.125,2.52-7.848,4.356-11.34,3.564-3.526-.972-6.66-3.78-9.541-8.82h-13.391c-.502-2.593-1.006-5.183-1.51-7.811z" stroke="#000" stroke-miterlimit="10" stroke-width=".036"/>
<path d="m176.738,81.238 14.076.144c.18-2.7 1.043-4.68 2.733-6.084 1.693-1.476 4.896-2.592 7.129-2.232 2.123.324 4.355,1.692 5.58,4.104 1.188,2.232 2.16,7.02 1.547,9.504-.756,2.376-3.455,4.536-5.614,5.076-2.306.36-5.58-.972-7.451-2.052-1.873-1.116-3.062-2.484-3.564-4.248h-13.428c-.325-1.405-.649-2.807-1.008-4.212z" fill="#404040" stroke="#000" stroke-miterlimit="10" stroke-width=".036"/>
<path d="m150.132,58.811-14.58.18c-.612-2.268-1.692-4.032-3.24-5.436-1.728-1.476-3.708-2.916-6.084-3.06-2.412-.252-5.904.432-7.992,2.052-2.196,1.62-4.104,4.356-4.752,7.632-.756,3.168-1.116,9.144.864,11.7 1.98,2.52 7.848,4.356 11.376,3.564 3.456-.972 6.624-3.78 9.504-8.82h13.392c.505-2.593 1.008-5.185 1.512-7.812z" stroke="#000" stroke-miterlimit="10" stroke-width=".036"/>
<path d="m149.125,60.179-18.9.684c.396-2.88 0-4.896-1.188-6.444-1.296-1.584-4.032-2.952-6.12-2.556-2.268.432-4.68,2.124-6.264,5.076-1.584,2.88-3.276,8.892-2.556,11.916 .612,2.844 4.5,5.148 6.804,5.4 2.232.144 5.184-2.844 6.768-4.392 1.476-1.62 2.16-3.42 2.052-5.256l18.396-.18c.323-1.406.649-2.808 1.008-4.248z" fill="#404040" stroke="#000" stroke-miterlimit="10" stroke-width=".036"/>
<path d="m145.742,89.05-14.616.144c-.648-2.268-1.62-4.032-3.204-5.436-1.728-1.476-3.672-2.916-6.12-3.06-2.412-.252-5.904.432-7.992,2.052-2.196,1.62-4.104,4.356-4.752,7.632-.756,3.204-1.116,9.108.864,11.736 1.98,2.52 7.848,4.356 11.376,3.564 3.456-.972 6.624-3.78 9.504-8.856h13.392c.504-2.593 1.008-5.183 1.548-7.776z" stroke="#000" stroke-miterlimit="10" stroke-width=".036"/>
<path d="m144.732,90.382-18.936.684c.396-2.88 0-4.896-1.188-6.444-1.332-1.584-3.96-2.952-6.084-2.556-2.232.504-4.752,2.16-6.3,5.112-1.584,2.736-3.276,8.964-2.556,11.88 .612,2.808 4.5,5.22 6.804,5.436 2.232,0 5.184-2.772 6.768-4.428 1.476-1.62 2.16-3.42 2.052-5.256l18.396-.18c.326-1.403.686-2.808 1.044-4.248z" fill="#404040" stroke="#000" stroke-miterlimit="10" stroke-width=".036"/>
<path d="m151.79,104.495c-3.168.144-5.76.144-7.632,0-1.98-.216-3.06.036-3.924-1.044-.9-1.152-1.908-1.98-1.512-5.94 .252-4.248 1.8-9.864 3.384-18.648 1.476-8.856 3.348-19.979 5.616-33.804-2.484-2.016-3.888-4.392-4.608-7.128-.72-2.808-.54-5.868.54-9.324-.864-.432-1.548-1.224-2.052-2.376-.684-1.296-.972-3.024-1.008-4.752 0-1.836.216-4.536 1.188-5.616 .9-1.044 2.16-1.368 4.068-.828 1.188-4.176 2.592-7.272 4.068-9.684 1.476-2.34 2.196-3.816 4.932-4.572 2.808-.828 8.207-1.08 11.195-.36 2.773.576 4.5,2.772 5.58,4.248 .973,1.332 1.297,2.88.684,4.248 1.152-.504 2.343-.504 3.564,0 1.117.468 2.773,1.764 3.564,3.06 .721,1.296 1.114,2.772 1.045,4.572 1.295-.756 2.303-.576 3.022.684 .648,1.224 1.043,4.68 1.043,6.624-.106,1.872-.432,3.348-1.367,4.428-1.008.9-2.377,1.296-4.248,1.188 .181,2.268.181,4.068 0,5.256-.217,1.188-.61,1.764-1.188,1.872 .252,2.808.539,7.956.863,15.588 .252,7.668.721,21.744 1.008,29.88 .252,8.028.684,13.932.324,18-.611,3.888-2.16,5.4-3.386,5.94-1.332.54-2.446-.36-3.887-2.7-3.023,1.08-6.156,1.8-9.684,2.016-3.524.178-7.162-.144-11.192-.828z" stroke="#000" stroke-miterlimit="10" stroke-width=".036"/>
<path d="m148.729,45.599c-.828,5.832-1.908,12.42-3.24,20.196-1.44,7.776-3.996,20.088-4.896,25.956-.936,5.652-1.44,6.336-.684,8.316 .684,1.908 2.376,2.88 5.076,3.06l9.864-57.888c-2.016.108-4.067.216-6.12.36z" fill="#d18836" stroke="#000" stroke-miterlimit="10" stroke-width=".036"/>
<path d="m169.789,102.623c1.117-7.452 2.125-16.056 2.881-25.812 .719-9.972 1.332-20.628 1.691-32.94l-5.615.18c-.324,6.588-.828,13.824-1.512,22.248-.759,8.388-2.125,21.168-2.736,27.648-.684,6.408-1.08,9.684-1.189,10.368 2.847-.144 4.646-.18 5.798-.504 1.078-.326 1.258-.721.682-1.188z" fill="#d18836" stroke="#000" stroke-miterlimit="10" stroke-width=".036"/>
<path d="m156.722,45.599c-.612,3.744-1.8,10.224-3.42,19.836-1.62,9.684-3.816,21.816-6.444,37.368 .828.36 1.62.36 2.376,0 .648-.396 1.188,0 2.052-2.412 .792-2.52 1.62-6.48 2.88-12.708 1.224-6.408 2.916-17.964 4.248-24.948 1.152-7.092 2.052-12.672 2.7-17.136h-4.392z" fill="#6f3a2c" stroke="#000" stroke-miterlimit="10" stroke-width=".036"/>
<path d="m152.292,102.441c.612.324 1.872.612 3.384.864s3.492.468 5.94.648c.828-5.544 1.69-13.14 2.736-23.076 .936-10.008 2.053-21.924 3.202-36.324l-4.391.864c-1.405,10.368-2.988,20.088-4.752,29.7-1.907,9.576-3.813,18.506-6.119,27.324z" fill="#404040" stroke="#000" stroke-miterlimit="10" stroke-width=".036"/>
<path d="m167.556,42.683c-2.268.648-5.039,1.044-8.314,1.188-3.384.144-7.092-.072-11.52-.504-1.584-1.296-2.556-3.276-3.06-5.94-.504-2.7-.504-6.048 0-10.188-1.512-.612-2.376-1.836-2.736-3.384-.396-1.728-.216-4.968.684-6.264 .936-1.332 2.34-1.8 4.608-1.548 1.224-5.652 2.592-9.72 4.392-12.06 1.62-2.484 3.456-1.872 5.94-2.196 2.484-.396 5.328-.288 8.82.18-2.088,2.556-3.203,6.12-3.887,10.692-.649,4.608-.721,11.34.18,16.452 .862,5.038 2.446,9.468 4.893,13.572z" fill="#d18836" stroke="#000" stroke-miterlimit="10" stroke-width=".036"/>
<path d="m175.73,33.179c-1.226,2.304-2.412,3.384-3.564,3.24-1.332-.18-2.52-1.584-3.564-4.068-1.188-2.664-2.377-7.452-2.735-11.052-.324-3.744.106-8.208 1.008-10.332 .793-2.088 2.34-2.664 4.248-1.872 .289-1.548.072-2.844-.504-3.744-.611-.972-1.729-1.692-3.203-2.016-1.369,2.016-2.34,4.356-3.062,7.452-.791,2.988-1.366,6.444-1.188,10.512s1.188,10.08 2.195,13.608c.936,3.348 2.016,5.22 3.239,6.588 1.115,1.26 2.195,1.008 3.386,1.044 1.008,0 2.592.432 3.203-1.044 .576-1.658.756-4.286.541-8.316z" fill="#6f3a2c" stroke="#000" stroke-miterlimit="10" stroke-width=".036"/>
<path d="m174.181,31.485c-.432,1.512-1.045,2.304-1.69,2.376-.722,0-1.767-.18-2.558-2.196-.936-2.196-2.629-7.272-2.698-10.368-.252-3.276.684-6.516 1.69-8.46 1.008-1.872 2.988-2.844 4.428-2.916 1.332-.216 2.412.36 3.386,1.728-1.908,1.08-3.168,2.772-3.924,5.076-.828,2.232-.9,6.192-.648,8.676 .178,2.376.899,4.537 2.014,6.084z" fill="#d18836" stroke="#000" stroke-miterlimit="10" stroke-width=".036"/>
<path d="m178.105,29.291c-.218,1.188-.611,1.908-1.043,2.016-.648.072-1.226-.144-1.873-1.332-.576-1.26-1.513-4.032-1.691-5.94-.289-2.124-.18-4.248.18-5.94 .287-1.692.9-2.952 1.691-3.924 .721-1.008 1.584-1.476 2.736-1.692l.827,2.736c-1.729.972-2.698,2.376-3.202,4.068-.47,1.656-.183,4.392.321,6.12 .398,1.656 1.081,2.951 2.054,3.888z" fill="#6f3a2c" stroke="#000" stroke-miterlimit="10" stroke-width=".036"/>
<path d="m183.361,25.727c-.576,1.044-2.558,1.908-3.42,2.016-.974,0-1.691-.864-2.017-2.016-.469-1.296-.721-4.176-.18-5.436 .576-1.404 2.555-2.52 3.563-2.376 .828.18 1.263,2.196 1.693,3.564 .253,1.332.83,3.022.361,4.248z" fill="#d18836" stroke="#000" stroke-miterlimit="10" stroke-width=".036"/>
<path d="m150.746,507.083 2.412-10.944c3.672-.611 8.891-.611 16.055,0 7.129.54 21.961-.54 26.316,3.42 4.067,3.853.469,9-1.367,20.16-1.908,11.231-5.328,28.513-9.576,46.836-4.32,18.324-12.744,54.937-15.697,62.208-2.916,6.876-1.979-3.456-2.051-20.159-.18-16.885 2.699-65.305 1.008-79.309-1.908-13.752-8.748.145-11.628-3.42-2.918-3.817-4.644-9.901-5.472-18.792z" fill="#6f3a2c"/>
<path d="m134.366,509.818c2.412-1.188 6.372-1.943 12.276-2.412 5.868-.504 16.308-.611 22.571-.323 6.049.287 10.764.972 14.004,2.052l-13.317,124.092-17.785,1.009c-5.907-41.474-11.809-82.946-17.749-124.418z" stroke="#000" stroke-miterlimit="10" stroke-width=".036"/>
<path d="m137.064,511.51c3.276-1.26 7.38-2.053 12.312-2.376 4.968-.396 11.772.036 17.099.323 5.148.217 9.865.721 14.007,1.368l-12.961,121.355-13.356.36c-5.687-40.318-11.375-80.674-17.101-121.03z" fill="#404040" stroke="#000" stroke-miterlimit="10" stroke-width=".036"/>
<path d="m141.638,513.563c-1.188-3.708-2.7-10.62-4.104-18.792-1.62-8.244-4.284-9.792-4.788-30.061-.54-20.521-.18-38.089 2.052-91.297 2.232-53.711 8.244-180.972 10.944-226.691 2.484-45.216 3.96-43.02 4.428-44.1 .396-1.044-.864,19.404-1.692,37.584-.9,18.216-2.412,46.044-3.42,70.416-.972,24.228-1.512,44.172-2.736,73.836-1.332,29.664-3.96,74.556-5.112,102.313-1.188,27.504-1.872,48.455-2.052,62.027-.216,13.319-.036,10.477.684,18.107 .684,7.632 1.872,18.973 3.42,27.359 1.476,8.208 4.572,18.612 5.112,21.889 .358,3.205-1.622.901-2.736-2.59z" fill="#c0c0c0"/>
<path d="m150.313,513.13c-.756-3.313-1.188-8.748-1.836-16.309-.864-7.561-2.232-8.353-2.736-28.765-.648-20.699-1.656-39.924-.252-93.779 1.44-54.468 6.588-181.944 8.928-228.024 2.16-45.504 3.96-42.984 4.428-44.1 .396-.972-.864,19.439-1.692,37.62-.936,18.252-2.448,45.792-3.42,70.416-1.008,24.336-1.224,45.36-2.196,75.132-1.008,29.808-3.096,74.087-3.636,102.275-.648,27.973.072,50.509.216,64.549 .108,13.68.288,10.691.684,18.107 .324,7.416.648,18.323 1.404,26.063 .72,7.523 2.736,16.523 2.844,19.367-.001,2.74-2.015.544-2.736-2.552z" fill="#c0c0c0"/>
<path d="m176.414,514.498c.648-3.313 1.08-8.747 1.836-16.308s2.195-8.353 2.771-28.765c.432-20.7 1.618-39.924.217-93.779-1.656-54.468-6.625-181.944-8.931-228.024-2.268-45.504-4.065-42.984-4.428-44.1-.467-.972.793,19.44 1.693,37.62 .862,18.252 2.375,45.792 3.42,70.416 .936,24.336 1.115,45.36 2.194,75.132 .974,29.808 3.023,74.088 3.673,102.276 .541,27.973-.146,50.508-.252,64.548-.181,13.681-.359,10.691-.685,18.107-.432,7.416-.756,18.324-1.404,26.063-.791,7.524-2.844,16.524-2.844,19.368-.069,2.738 1.911.542 2.74-2.554z" fill="#c0c0c0"/>
<path d="m163.38,513.202c.648-2.844 1.008-7.021 1.369-14.327 .324-7.524.756,1.296.756-29.917-.106-31.68-1.152-104.579-1.188-157.067-.218-52.596.573-119.844.432-155.088-.252-35.028-.936-51.12-1.369-53.82-.432-2.556-.936,19.728-1.115,38.124-.324,18.324-.071,46.692-.217,71.1-.179,24.3-1.007,44.28-.935,74.124-.072,29.916.611,75.563.935,103.752 .289,27.972.974,49.14 1.08,62.964-.035,13.464-.539,10.296-.684,18.145-.252,7.884-.107,20.987-.396,28.62-.395,7.523-1.655,13.535-1.403,15.947 .181,2.159 2.017.287 2.735-2.557z" fill="#c0c0c0"/>
<path d="m139.692,516.442c0,1.62 1.512,2.952 3.42,2.952 1.872,0 3.42-1.332 3.42-2.952 0-1.656-1.548-2.952-3.42-2.952-1.906,0-3.42,1.296-3.42,2.952z" stroke="#000" stroke-miterlimit="10" stroke-width=".036"/>
<path d="m149.27,516.91c0,1.62 1.512,2.952 3.42,2.952 1.872,0 3.42-1.332 3.42-2.952 0-1.655-1.548-2.987-3.42-2.987-1.908-.001-3.42,1.331-3.42,2.987z" stroke="#000" stroke-miterlimit="10" stroke-width=".036"/>
<path d="m157.478,516.442c0,1.62 1.512,2.952 3.42,2.952 1.872,0 3.421-1.332 3.421-2.952 0-1.656-1.55-2.952-3.421-2.952-1.908,0-3.42,1.296-3.42,2.952z" stroke="#000" stroke-miterlimit="10" stroke-width=".036"/>
<path d="m168.888,516.91c0,1.62 1.515,2.952 3.42,2.952 1.873,0 3.423-1.332 3.423-2.952 0-1.655-1.55-2.987-3.423-2.987-1.906-.001-3.42,1.331-3.42,2.987z" stroke="#000" stroke-miterlimit="10" stroke-width=".036"/>
<path d="m155.138,634.45c-.252,4.717-.108,8.425.288,11.124 .324,2.628 1.188,3.708 2.16,5.04 .972,1.296 2.124,2.195 3.6,2.844l.36,23.221c-1.368,1.908-2.232,3.527-2.592,5.004-.396,1.513-.9,2.771.288,3.637 1.188.647 5.04.792 6.695.433 1.478-.469 2.845-1.404 2.593-2.952-.324-1.691-3.455-5.185-4.104-6.301-.721-1.044-.721-1.044 0,0l.181-22.644c1.477-.54 2.592-1.692 3.348-3.456 .684-1.801.828-4.536 1.008-7.236 .18-2.808.109-5.939-.072-9.54-4.573.251-9.145.538-13.753.826z" stroke="#000" stroke-miterlimit="10" stroke-width=".036"/>
<path d="m156.9,635.098c-.36,3.528-.36,6.337 0,8.82 .324,2.447.936,4.176 1.98,5.579 1.044,1.225 2.34,2.124 4.175,2.305 1.332-.647 2.449-1.513 3.062-2.88 .647-1.439.647-2.845.828-5.185 .145-2.412.145-5.399 0-9.107-3.348.144-6.695.288-10.045.468z" fill="#404040" stroke="#000" stroke-miterlimit="10" stroke-width=".036"/>
<path d="m162.41,678.442c-.756.252-1.945,3.132-1.765,4.067 .072.937 1.332,1.548 2.411,1.691 1.011.072 3.313-.611 3.709-1.225 .287-.792-.973-1.8-1.69-2.592-.794-.789-1.909-2.409-2.665-1.941z" fill="#404040" stroke="#000" stroke-miterlimit="10" stroke-width=".036"/>
<path d="m155.786,639.814-5.724.107c-.468-1.044-1.188-1.691-2.16-1.943-1.152-.324-3.096-.433-3.888.359-.792.828-.936,2.771-.72,4.176 0,1.188.648,2.521 1.548,3.168 1.008.54 3.096.757 4.176.36 1.008-.505 1.404-1.585 1.584-3.24l5.292-.181c-.038-.933-.074-1.87-.108-2.806z" stroke="#000" stroke-miterlimit="10" stroke-width=".036"/>
<path d="m155.138,640.03-6.3.252c-.36-.72-.9-1.115-1.476-1.477-.72-.288-1.764-1.188-2.304-.468-.54.576-1.08,2.916-.936,4.104 0,1.079.396,2.269 1.188,2.304 .756-.18 1.908-.899 3.456-2.699l6.3-.072c-.002-.648.036-1.296.072-1.944z" fill="#404040" stroke="#000" stroke-miterlimit="10" stroke-width=".036"/>
</svg>
