<?xml version="1.0" encoding="UTF-8" standalone="no"?>
<svg
   xmlns:dc="http://purl.org/dc/elements/1.1/"
   xmlns:cc="http://creativecommons.org/ns#"
   xmlns:rdf="http://www.w3.org/1999/02/22-rdf-syntax-ns#"
   xmlns:svg="http://www.w3.org/2000/svg"
   xmlns="http://www.w3.org/2000/svg"
   xmlns:sodipodi="http://sodipodi.sourceforge.net/DTD/sodipodi-0.dtd"
   xmlns:inkscape="http://www.inkscape.org/namespaces/inkscape"
   viewBox="0 0 426.9476 472.4429"
   id="svg2"
   version="1.1"
   inkscape:version="0.91 r13725"
   sodipodi:docname="singer2.svg"
   inkscape:export-filename="/Users/sander/Pictures/AudioStreamer/singer.png"
   inkscape:export-xdpi="217.74055"
   inkscape:export-ydpi="217.74055">
  <metadata
     id="metadata56">
    <rdf:RDF>
      <cc:Work
         rdf:about="">
        <dc:format>image/svg+xml</dc:format>
        <dc:type
           rdf:resource="http://purl.org/dc/dcmitype/StillImage" />
        <dc:title></dc:title>
      </cc:Work>
    </rdf:RDF>
  </metadata>
  <defs
     id="defs54" />
  <sodipodi:namedview
     pagecolor="#ffffff"
     bordercolor="#666666"
     borderopacity="1"
     objecttolerance="10"
     gridtolerance="10"
     guidetolerance="10"
     inkscape:pageopacity="0"
     inkscape:pageshadow="2"
     inkscape:window-width="1738"
     inkscape:window-height="1087"
     id="namedview52"
     showgrid="false"
     showguides="false"
     inkscape:zoom="1.9981251"
     inkscape:cx="146.12708"
     inkscape:cy="175.63859"
     inkscape:window-x="0"
     inkscape:window-y="800"
     inkscape:window-maximized="0"
     inkscape:current-layer="svg2" />
  <g
     transform="translate(-148.43368,-296.07799)"
     id="g4">
    <path
       d="m151.536,284.293 2.5-38.5-16-4.75 1.75,29.25-23.25,15z"
       fill="#565248"
       transform="matrix(2.52306,0,0,2.52306,-35.28996,31.04824)"
       id="path6" />
    <path
       d="m194.286,292.293-12.75-22.25 8.75-14-12-4-12.25,17.75 12.25,11.25-24.75,9z"
       fill="#565248"
       transform="matrix(2.52306,0,0,2.52306,-35.28996,31.04824)"
       id="path8" />
    <path
       d="m122.786,166.043 27.5,4.25-13.5,43.5 75,11 8.75-53.75 6.75-46-63-18.75-10,31z"
       fill="#fdd89a"
       transform="matrix(2.52306,0,0,2.52306,-35.28996,31.04824)"
       id="path10" />
    <path
       d="m211.536,130.043-8.75,37.5 17.75,6.25 21.5-52.75-18-14.25-60.75-1.75-2.75,10.5z"
       fill="#806646"
       transform="matrix(2.52306,0,0,2.52306,-35.28996,31.04824)"
       id="path12" />
    <path
       d="m320.7642,527.5687 15.62279-44.7843c0,0 45.57655.63076 37.11168,30.27671s-35.15883,18.92295-52.73447,14.50759z"
       fill="#fff"
       id="path14" />
    <path
       d="m212.786,218.543-74.149-13.5-8.351,39.25 75.414,22.25z"
       fill="#fb8a00"
       transform="matrix(2.52306,0,0,2.52306,-35.28996,31.04824)"
       id="path16"
       style="fill:#338a00;fill-opacity:1" />
    <path
       d="m201.286,216.043-35.75-6.25 2.75,22.5z"
       fill="#efa512"
       transform="matrix(2.52306,0,0,2.52306,-35.28996,31.04824)"
       id="path18"
       style="fill:#b4a512;fill-opacity:1" />
    <path
       d="m171.536,144.793a6.125,5.5 0 1,0 -12.25,0 6.125,5.5 0 1,0 12.25,0"
       transform="matrix(2.52306,0,0,2.52306,-35.28996,31.04824)"
       id="path22" />
    <path
       d="m193.536,150.668a6.25,5.625 0 1,0 -12.5,0 6.25,5.625 0 1,0 12.5,0"
       transform="matrix(2.52306,0,0,2.52306,-35.28996,31.04824)"
       id="path24" />
    <g
       transform="matrix(2.52306,0,0,2.52306,-35.28996,31.04824)"
       id="g28" />
    <g
       transform="matrix(2.52306,0,0,2.52306,-35.28996,31.04824)"
       id="g32" />
    <g
       transform="matrix(2.52306,0,0,2.52306,-35.28996,31.04824)"
       id="g36" />
    <g
       transform="matrix(2.52306,0,0,2.52306,-35.28996,31.04824)"
       id="g40" />
    <g
       transform="matrix(2.52306,0,0,2.52306,-35.28996,31.04824)"
       id="g44">
      <g
         id="g4205" />
    </g>
  </g>
  <g
     inkscape:groupmode="layer"
     id="layer1"
     inkscape:label="microphone"
     style="display:inline">
    <g
       id="g4225"
       transform="matrix(0.60627174,0.79525756,-0.79525756,0.60627174,240.31189,58.431545)">
      <path
         style="fill:#58595b"
         d="m 94.786,239.793 7,-2.25 -5,-44.25 -13.75,3.5 z"
         id="path20"
         transform="matrix(2.52306,0,0,2.52306,-183.72364,-265.02975)"
         inkscape:connector-curvature="0" />
      <path
         transform="translate(-148.43368,-296.07799)"
         style="fill:#808285"
         d="m 179.8917,453.13845 c 0,0 -40.36896,7.56918 -29.64595,50.46119 l 11.98453,32.16901 55.50731,-10.72301 c 0,0 20.81524,-32.16901 -3.78459,-57.3996 0,0 -12.6153,-19.55371 -34.0613,-14.50759 z"
         id="path26"
         inkscape:connector-curvature="0" />
      <path
         d="m 80.036,172.314 2,-0.043 0.5,23.5 -2,0.043 z"
         id="path30"
         transform="matrix(2.52306,0,0,2.52306,-183.72364,-265.02975)"
         inkscape:connector-curvature="0" />
      <path
         d="m 86.788,169.099 1.996,-0.112 1.5,27 -1.996,0.112 z"
         id="path34"
         transform="matrix(2.52306,0,0,2.52306,-183.72364,-265.02975)"
         inkscape:connector-curvature="0" />
      <path
         d="m 93.79,173.375 1.992,-0.164 1.75,21.25 -1.992,0.164 z"
         id="path38"
         transform="matrix(2.52306,0,0,2.52306,-183.72364,-265.02975)"
         inkscape:connector-curvature="0" />
      <path
         d="m 75.863,189.309 24.25,-4.25 0.345,1.968 -24.25,4.25 z"
         id="path42"
         transform="matrix(2.52306,0,0,2.52306,-183.72364,-265.02975)"
         inkscape:connector-curvature="0" />
      <path
         d="m 74.339,180.812 25,-5 0.393,1.961 -25,5 z"
         id="path46"
         transform="matrix(2.52306,0,0,2.52306,-183.72364,-265.02975)"
         inkscape:connector-curvature="0" />
    </g>
  </g>
  <g
     inkscape:groupmode="layer"
     id="layer2"
     inkscape:label="arm">
    <path
       style="fill:#b4a512;fill-opacity:1"
       d="m92.786,219.293 8.25-9.25 20.25,11 39.75-4.25-2.25,10.75-43.25,6z"
       fill="#efa512"
       transform="matrix(2.52306,0,0,2.52306,-183.72364,-265.02975)"
       id="path48" />
    <path
       transform="translate(-148.43368,-296.07799)"
       style=""
       d="m222.78371,562.89154-18.92295,25.23059-24.59983-6.30764c0,0-19.55371-11.98454 3.15383-20.18448 0,0-3.78459-16.39989 9.46147-11.35377 0,0 5.67688-18.29218 15.13836-5.67688l15.76912,18.29218z"
       fill="#fdd89a"
       stroke="#fdd89a"
       stroke-width="2.52306"
       id="path50" />
  </g>
</svg>
