<?xml version="1.0" encoding="UTF-8" standalone="no"?>
<svg viewBox="0 0 500 500" xmlns="http://www.w3.org/2000/svg">
<defs>
<filter id="filter15977">
<feGaussianBlur stdDeviation="4.46364"/>
</filter>
<radialGradient cx="1049.4054" cy="260.33261" gradientTransform="matrix(-.48145,-.48145,.6544,-.6544,716.80238,973.82459)" gradientUnits="userSpaceOnUse" id="radialGradient11091" r="151.54769">
<stop offset="0" stop-color="#e8943a"/>
<stop offset="1" stop-color="#af412a"/>
</radialGradient>
</defs>
<g fill="#3f3f3f" filter="url(#filter15977)" opacity=".64679" transform="translate(-389.13392,51.34406)">
<path d="m544.61195,129.99255c-26.16266,19.7719-43.02713,41.46756-20.38217,71.33758 15.11152,21.34975 38.41949,22.33212 36.94268,38.21656 13.45101-9.93878 28.37625-6.60954 45.22293,14.01274 16.7568,34.17926 5.11761,43.34474-8.28026,49.04459 18.96952,3.48325 17.23673,25.25873 31.84713,54.14013 24.24732,28.51922 53.03461,39.27375 73.88536,35.66878 34.64613-4.28964 50.26226-14.29218 72.61146-29.9363 26.97794-20.4336 50.77701-41.37676 48.40765-71.97452-1.85633-23.97236-15.24517-40.78506-35.03185-54.77707-18.75702-13.2189-36.40296-10.5936-41.40127-29.93631-11.35085,9.32511-25.95621,12.46665-54.14013-10.19108-30.01583-28.71429-9.14137-26.59318-5.73249-34.39491-18.24616-.91996-13.83194-20.79386-28.66242-36.94267-22.97921-22.38077-52.3942-24.53482-87.26114-9.55414" fill="#3f3f3f" fill-rule="evenodd"/>
<path d="m547.81119,132.985c-23.62428,18.91542-41.60318,40.84539-18.877,68.89785 15.23443,20.05969 35.27197,17.60753 34.65458,32.63928 12.15694-9.51077 29.5272-2.02996 46.35676,17.32726 14.2178,29.62883 8.18437,44.76259-4.12818,50.26486 17.99311,3.13377 19.33168,44.75696 28.72799,54.10794 23.84784,26.12479 53.01093,34.77723 72.42797,31.19298 32.3463-4.34783 47.80843-15.21102 70.59744-30.19134 24.35826-19.54796 46.06529-39.70795 42.70866-72.2732-3.26013-20.2711-18.29021-35.89832-37.56074-48.96161-18.26554-12.34097-30.89713-7.16226-36.53161-25.40939-10.21334,8.91282-26.96926,9.45853-54.55026-11.7278-29.59598-26.8976-14.3376-30.16337-10.23896-36.29503-15.91525-2.62698-8.90961-20.81872-23.62777-35.9631-22.67709-20.96829-50.76166-23.13038-82.79703-8.67192" fill="#3f3f3f" fill-rule="evenodd"/>
<path d="m617.22341,203.8779-136.30573-142.67515c-8.68933-9.36876-15.5061-13.12709-24.20382-8.9172 16.13588-11.04034 29.72399-11.8896 40.76433-2.54777l74.54578,66.15938 78.32046,69.5094c-12.05719-.96087-22.7465,7.65351-33.12102,18.47134z" fill="#3f3f3f" fill-rule="evenodd"/>
<path d="m477.09603,66.29829-11.46497,5.09555c1.40409,6.67829.77847,8.09362-6.36943,10.19108-5.37385-.78326-8.04286-4.27136-8.28025-10.19108 4.31752-8.61416 8.36747-5.49371 12.10191-5.09555l11.46497-5.09554c1.80082,1.46062 4.01711,2.81738 2.54777,5.09554z" fill="#3f3f3f" fill-rule="evenodd"/>
<path d="m490.92127,45.10965 5.62983-3.3779c-1.76307-5.22581 1.1013-7.75227 6.5306-8.78254 6.14537.31017 8.10572,4.80536 7.65657,11.71005-2.67998,5.14502-6.40375,6.6368-11.48485,3.3779l-2.47713.90077 .45039.45039" fill="#3f3f3f" fill-rule="evenodd"/>
<path d="m484.84105,42.85772c-1.27253-4.5003 3.54307-9.44307 11.25966-6.5306" fill="#3f3f3f" fill-rule="evenodd"/>
<path d="m468.40194,45.10965-4.95425,4.95425c16.31637,2.63395 24.81188,17.83849 34.00418,28.82473-14.36171,9.60093-19.01723-18.08597-29.27512-5.85502l-10.24629-13.399c-2.18106-3.42655-6.35644-8.36518-7.99436-12.94861-3.93979,2.93698-7.1688-.16763-9.9085-7.43138 1.42622-2.13492 2.85244-3.25376 4.27867-1.80155-.31811-6.45578-4.91219-18.50323 1.80154-15.76353 .86319-1.35122.62789-4.02064 4.27868-2.02674 4.01763-5.13013 10.0045,3.52445 15.08794,5.85503 5.62309-1.06236 7.43246,3.1703 5.85503,9.9085 2.14173,6.89954-.37713,7.97333-2.92752,9.00773l.2252,1.12597h-.2252" fill="#3f3f3f" fill-rule="evenodd"/>
<path d="m626.93798,230.89407c-9.36941-.9886-7.47145,6.63479-3.1527,15.53833 9.9861,10.42525 25.74629,25.0494 23.4201,40.3096 .3694,9.02114-6.04783,12.56606-16.88949,9.9085-3.03699-2.0757-6.05375-5.29925-.67559-9.00773 5.16412-1.39592 4.84163,2.11017 4.72907,5.40463 7.15674,3.65081 9.73653-1.41403 8.10695-8.55734-2.01239-8.54204-8.61591-15.24514-14.63756-22.06893-15.83927-22.01877-11.80534-28.91011-8.33215-32.87822 3.45296-1.6258 6.90593-3.56969 10.35889-1.12596 2.26068,2.32918 3.70425,4.1163 2.25193,5.85502-3.12962,2.63496-5.86555.42872-5.17945-3.3779z" fill="#3f3f3f" fill-rule="evenodd"/>
<path d="m732.32842,229.54291c3.35166,7.53653-12.60882,1.71088-15.98872-.90077l-30.40109-23.4201c-12.78785-8.84822-14.06449-6.70086-20.04219-5.40464-1.44848,2.05074-4.3731,3.43051.45038,8.33215 4.51537,2.11331 4.74633-.05779 5.17945-2.02673l-3.60309-2.47713c2.75024-5.83253 9.42398-.8117 13.0612,2.25193 11.0063,9.43924 22.20798,20.05072 32.65302,26.12242 9.08802,5.10145 14.70057,3.8312 20.2674,2.47712 3.4968-1.45033 2.85406-4.67475 2.25193-7.88176-2.79692-2.89667-5.91656-4.66385-9.90851-3.3779-3.40127,2.69657.24877,5.48542 6.08022,6.30541z" fill="#3f3f3f" fill-rule="evenodd"/>
<path d="m647.65576,249.13472-2.70232-14.41236c13.10977-18.38653 27.13279-23.98753 41.43556-25.67203l-3.1527,19.36662-35.58054,20.71777z" fill="#3f3f3f" fill-rule="evenodd"/>
<path d="m683.2363,275.25714c7.64335-7.96476 16.14915-15.41204 29.7255-19.817 6.90593,10.79251 13.81185,21.21677 20.71778,37.83246 14.43105,25.63466 41.78133,46.59903 50.89368,59.45101l-21.61856,13.96199c-14.33943-19.0282-9.07686-28.52074-41.43555-60.35179-13.49669-9.3779-28.15528-17.20661-38.28285-31.07667z" fill="#3f3f3f" fill-rule="evenodd"/>
<path d="m686.83939,278.40985c9.30799-10.24983 18.61597-15.98531 27.92396-20.2674" fill="#3f3f3f" fill-rule="evenodd"/>
<path d="m479.00686,59.29192 19.10827-10.19108" fill="#3f3f3f" fill-rule="evenodd"/>
<path d="m688.56099,270.75688-36.94267-43.94904-168.78981-169.42675" fill="#3f3f3f" fill-rule="evenodd"/>
<path d="m694.29348,265.66134-34.39491-47.13376-172.61146-163.69426" fill="#3f3f3f" fill-rule="evenodd"/>
<path d="m702.57373,259.29192-32.48407-47.13376-178.34395-160.50955h1.27388" fill="#3f3f3f" fill-rule="evenodd"/>
<path d="m710.21705,255.47026-30.57325-45.22293-182.80255-160.50955" fill="#3f3f3f" fill-rule="evenodd"/>
<g fill="#3f3f3f" transform="translate(382.82851,-32.42783)">
<path d="m134.3949,224.84076c-5.47715,43.94904 51.2832,49.68153 45.22293,68.78981l3.82166,1.27389c24.30008-22.51546 45.68328,15.55836 45.70164,28.54859 10.02233-13.91126-13.96132-75.87317-51.23847-51.34861 1.52816-17.69681-23.02411-15.53545-43.2371-46.38981" fill="#3f3f3f" fill-rule="evenodd"/>
</g>
<path d="m596.76209,301.82994c26.368,2.23437 20.04345,35.03875 34.67976,56.29831 38.09673,40.65696 71.56901,36.70118 105.84082,27.02319 47.21026-21.45711 77.91564-51.86461 87.04845-80.97231-4.13617,20.22984 1.95467,33.94443-44.05038,73.58412-45.10816,34.02957-63.63478,32.61708-84.07643,33.75796-33.70465-2.60108-52.31778-20.29369-67.51593-41.40127-12.31281-16.56249-8.22738-41.56021-25.4777-43.94904-4.15339-1.59493-2.41032-4.98312-1.27389-7.00637l-1.27389-11.46497c-3.34561-.54041-2.58624-3.5438-3.18471-5.73249" fill="#3f3f3f" fill-rule="evenodd"/>
<path d="m689.31651,161.08417c.88494,2.49159 1.52787,4.82184-1.12596,4.95425v13.96198c1.82596,4.10059 2.33332,7.27817-3.3779,6.41801-19.88283-21.96631 2.2644-17.66584 4.27867-26.00982" fill="#3f3f3f" fill-rule="evenodd"/>
<path d="m485.96498,48.75954 11.19134-5.67134c-1.74151-6.59835-1.18858-8.04363 5.84354-10.50147 5.4067.50928 8.24945,3.8573 8.78723,9.75732-3.87438,8.82235-8.0776,5.91165-11.82745,5.70369l-11.19133,5.67134c-1.87269-1.36726-4.15505-2.60968-2.80333-4.95954z" fill="#3f3f3f" fill-rule="evenodd"/>
<path d="m474.25494,47.40838 11.19134-5.67134c-1.74151-6.59835-1.18858-8.04363 5.84354-10.50146 5.4067.50928 8.24945,3.8573 8.78723,9.75732-3.87438,8.82235-8.0776,5.91165-11.82745,5.70369l-11.19133,5.67134c-1.87269-1.36726-4.15505-2.60968-2.80333-4.95954z" fill="#3f3f3f" fill-rule="evenodd"/>
<path d="m476.64564,66.74868-11.46497,5.09554c1.40409,6.67829.77847,8.09362-6.36942,10.19108-5.37386-.78326-8.04287-4.27136-8.28026-10.19108 4.31752-8.61416 8.36747-5.49371 12.10191-5.09554l11.46497-5.09554c1.80082,1.46062 4.01712,2.81737 2.54777,5.09554z" fill="#3f3f3f" fill-rule="evenodd"/>
<path d="m467.18753,59.54249-11.46497,5.09554c1.40409,6.67829.77846,8.09362-6.36943,10.19108-5.37385-.78326-8.04286-4.27136-8.28025-10.19108 4.31752-8.61416 8.36746-5.49371 12.10191-5.09554l11.46497-5.09554c1.80081,1.46062 4.01711,2.81737 2.54777,5.09554z" fill="#3f3f3f" fill-rule="evenodd"/>
</g>
<path d="m161.78344,162.42038c-26.16266,19.7719-43.02713,41.46756-20.38217,71.33758 15.11152,21.34975 38.41949,22.33212 36.94268,38.21656 13.45101-9.93878 28.37625-6.60954 45.22293,14.01274 16.7568,34.17926 5.11761,43.34474-8.28026,49.04459 18.96952,3.48325 17.23673,25.25873 31.84713,54.14013 24.24732,28.51922 53.03461,39.27375 73.88536,35.66878 34.64613-4.28964 50.26226-14.29218 72.61146-29.9363 26.97794-20.4336 50.77701-41.37676 48.40765-71.97452-1.85633-23.97236-15.24517-40.78506-35.03185-54.77707-18.75702-13.2189-36.40296-10.5936-41.40127-29.93631-11.35085,9.32511-25.95621,12.46665-54.14013-10.19108-30.01583-28.71429-9.14137-26.59318-5.73249-34.39491-18.24616-.91996-13.83194-20.79386-28.66242-36.94267-22.97921-22.38077-52.3942-24.53482-87.26114-9.55414" fill="#a8412e" fill-rule="evenodd" stroke="#000"/>
<path d="m164.98268,165.41283c-23.62428,18.91542-41.60318,40.84539-18.877,68.89785 15.23443,20.05969 35.27197,17.60753 34.65458,32.63928 12.15694-9.51077 29.5272-2.02996 46.35676,17.32726 14.2178,29.62883 8.18437,44.76259-4.12818,50.26486 17.99311,3.13377 19.33168,44.75696 28.72799,54.10794 23.84784,26.12479 53.01093,34.77723 72.42797,31.19298 32.3463-4.34783 47.80843-15.21102 70.59744-30.19134 24.35826-19.54796 46.06529-39.70795 42.70866-72.2732-3.26013-20.2711-18.29021-35.89832-37.56074-48.96161-18.26554-12.34097-30.89713-7.16226-36.53161-25.40939-10.21334,8.91282-26.96926,9.45853-54.55026-11.7278-29.59598-26.8976-14.3376-30.16337-10.23896-36.29503-15.91525-2.62698-8.90961-20.81872-23.62777-35.9631-22.67709-20.96829-50.76166-23.13038-82.79703-8.67192" fill="url(#radialGradient11091)" fill-rule="evenodd" stroke="#000" stroke-width=".94279"/>
<path d="m234.3949,236.30573-136.30573-142.67516c-8.68933-9.36876-15.5061-13.12709-24.20382-8.9172 16.13588-11.04034 29.72399-11.8896 40.76433-2.54777l74.54578,66.15939 78.32046,69.5094c-12.05719-.96087-22.7465,7.65351-33.12102,18.47134z" fill-rule="evenodd" stroke="#000"/>
<path d="m94.26752,98.72611-11.46497,5.09555c1.40409,6.67829.77846,8.09362-6.36943,10.19108-5.37386-.78326-8.04286-4.27136-8.28025-10.19108 4.31752-8.61416 8.36747-5.49371 12.10191-5.09555l11.46497-5.09554c1.80082,1.46062 4.01712,2.81738 2.54777,5.09554z" fill="none" stroke="#000"/>
<path d="m108.09276,77.53748 5.62983-3.3779c-1.76307-5.22581 1.1013-7.75227 6.5306-8.78254 6.14537.31017 8.10572,4.80536 7.65657,11.71005-2.67998,5.14502-6.40375,6.6368-11.48485,3.3779l-2.47713.90077 .45039.45039" fill="none" stroke="#000"/>
<path d="m102.01254,75.28554c-1.27253-4.5003 3.54307-9.44307 11.25966-6.5306" fill="none" stroke="#000"/>
<path d="m85.57343,77.53748-4.95425,4.95425c16.31636,2.63395 24.81188,17.83849 34.00418,28.82473-14.36171,9.60093-19.01723-18.08597-29.27512-5.85502l-10.24629-13.399c-2.18106-3.42654-6.35644-8.36518-7.99436-12.94861-3.93979,2.93698-7.1688-.16763-9.9085-7.43138 1.42622-2.13492 2.85245-3.25376 4.27867-1.80155-.31811-6.45578-4.91219-18.50323 1.80155-15.76353 .86319-1.35122.62788-4.02064 4.27867-2.02674 4.01763-5.13013 10.0045,3.52445 15.08795,5.85502 5.62309-1.06236 7.43246,3.1703 5.85502,9.9085 2.14174,6.89954-.37713,7.97333-2.92751,9.00773l.22519,1.12597h-.22519" fill="#b84e2c" fill-rule="evenodd" stroke="#000"/>
<path d="m244.10947,263.3219c-9.36941-.9886-7.47145,6.63479-3.1527,15.53833 9.9861,10.42525 25.74629,25.0494 23.4201,40.3096 .3694,9.02114-6.04783,12.56606-16.88949,9.9085-3.03699-2.0757-6.05375-5.29925-.67559-9.00773 5.16412-1.39592 4.84163,2.11017 4.72907,5.40463 7.15674,3.65081 9.73653-1.41403 8.10695-8.55734-2.01239-8.54204-8.61591-15.24514-14.63756-22.06893-15.83927-22.01877-11.80534-28.91011-8.33215-32.87822 3.45296-1.6258 6.90593-3.56969 10.35889-1.12596 2.26068,2.32918 3.70425,4.1163 2.25193,5.85502-3.12962,2.63496-5.86555.42872-5.17945-3.3779z" fill-rule="evenodd" stroke="#000"/>
<path d="m349.49991,261.97074c3.35166,7.53653-12.60882,1.71088-15.98872-.90077l-30.40109-23.4201c-12.78785-8.84822-14.06449-6.70086-20.04219-5.40464-1.44848,2.05074-4.3731,3.43051.45038,8.33215 4.51537,2.11331 4.74633-.05779 5.17945-2.02673l-3.60309-2.47713c2.75024-5.83253 9.42398-.8117 13.0612,2.25193 11.0063,9.43924 22.20798,20.05072 32.65302,26.12242 9.08802,5.10145 14.70057,3.8312 20.2674,2.47712 3.4968-1.45033 2.85406-4.67475 2.25193-7.88176-2.79692-2.89667-5.91656-4.66385-9.90851-3.3779-3.40127,2.69657.24877,5.48542 6.08022,6.30541z" fill-rule="evenodd" stroke="#000"/>
<path d="m264.82725,281.56255-2.70232-14.41236c13.10977-18.38653 27.13279-23.98753 41.43556-25.67203l-3.1527,19.36662-35.58054,20.71777z" fill="#d5b29b" fill-rule="evenodd" stroke="#000"/>
<path d="m300.40779,307.68497c7.64335-7.96476 16.14915-15.41204 29.7255-19.817 6.90593,10.79251 13.81185,21.21677 20.71778,37.83246 14.43105,25.63466 41.78133,46.59903 50.89368,59.45101l-21.61856,13.96199c-14.33943-19.0282-9.07686-28.52074-41.43555-60.35179-13.49669-9.3779-28.15528-17.20661-38.28285-31.07667z" fill-rule="evenodd" stroke="#000"/>
<path d="m304.01088,310.83768c9.30799-10.24983 18.61597-15.98531 27.92396-20.2674" fill="none" stroke="#000"/>
<path d="m96.17834,91.71975 19.10828-10.19108" fill="none" stroke="#000"/>
<path d="m305.73248,303.18471-36.94267-43.94904-168.78981-169.42675" fill="none" stroke="#858585"/>
<path d="m311.46497,298.08917-34.39491-47.13376-172.61146-163.69426" fill="none" stroke="#858585"/>
<path d="m319.74522,291.71975-32.48407-47.13376-178.34395-160.50956h1.27388" fill="none" stroke="#858585"/>
<path d="m327.38854,287.89809-30.57325-45.22293-182.80255-160.50956" fill="none" stroke="#858585"/>
<path d="m134.3949,224.84076c-5.47715,43.94904 51.2832,49.68153 45.22293,68.78981l3.82166,1.27389c24.30008-22.51546 45.68328,15.55836 45.70164,28.54859 10.02233-13.91126-13.96132-75.87317-51.23847-51.34861 1.52816-17.69681-23.02411-15.53545-43.2371-46.38981" fill="#af412a" fill-rule="evenodd" stroke="#000"/>
<path d="m213.93358,334.25777c26.368,2.23437 20.04345,35.03875 34.67976,56.29831 38.09673,40.65696 71.56901,36.70118 105.84082,27.02319 47.21026-21.45711 77.91564-51.86461 87.04845-80.97231-4.13617,20.22984 1.95467,33.94443-44.05038,73.58412-45.10816,34.02957-63.63478,32.61708-84.07643,33.75796-33.70465-2.60108-52.31778-20.29369-67.51593-41.40127-12.31281-16.56249-8.22738-41.56021-25.4777-43.94904-4.15339-1.59493-2.41032-4.98312-1.27389-7.00637l-1.27389-11.46497c-3.34561-.54041-2.58624-3.5438-3.18471-5.73249" fill="#af412a" fill-rule="evenodd" stroke="#000"/>
<path d="m306.488,193.512c.88494,2.49159 1.52787,4.82184-1.12596,4.95425v13.96198c1.82596,4.10059 2.33332,7.27817-3.3779,6.41801-19.88283-21.96631 2.2644-17.66584 4.27867-26.00982" fill="#af412a" fill-rule="evenodd" stroke="#000"/>
<path d="m103.13647,81.18737 11.19134-5.67134c-1.74151-6.59835-1.18858-8.04363 5.84354-10.50146 5.4067.50928 8.24945,3.8573 8.78723,9.75732-3.87438,8.82235-8.0776,5.91165-11.82745,5.70369l-11.19133,5.67134c-1.87269-1.36726-4.15505-2.60968-2.80333-4.95955z" fill-rule="evenodd" stroke="#000"/>
<path d="m91.42643,79.83621 11.19134-5.67134c-1.74151-6.59835-1.18858-8.04363 5.84354-10.50147 5.4067.50928 8.24945,3.8573 8.78723,9.75732-3.87438,8.82235-8.0776,5.91165-11.82745,5.70369l-11.19133,5.67134c-1.87269-1.36726-4.15505-2.60968-2.80333-4.95955z" fill-rule="evenodd" stroke="#000"/>
<path d="m177.07006,271.33758 3.82166,23.56688" fill="none" stroke="#000"/>
<path d="m93.81713,99.1765-11.46497,5.09554c1.40409,6.67829.77847,8.09362-6.36943,10.19108-5.37385-.78326-8.04286-4.27136-8.28025-10.19108 4.31752-8.61416 8.36747-5.49371 12.10191-5.09554l11.46497-5.09554c1.80082,1.46062 4.01712,2.81737 2.54777,5.09554z" fill-rule="evenodd" stroke="#000"/>
<path d="m84.35901,91.97032-11.46497,5.09554c1.40409,6.67829.77846,8.09362-6.36943,10.19108-5.37385-.78326-8.04286-4.27136-8.28026-10.19108 4.31752-8.61416 8.36747-5.49371 12.10191-5.09554l11.46497-5.09554c1.80082,1.46062 4.01712,2.81737 2.54777,5.09554z" fill-rule="evenodd" stroke="#000"/>
</svg>
